<?xml version="1.0" encoding="UTF-8" standalone="no"?>
<!DOCTYPE svg PUBLIC "-//W3C//DTD SVG 1.1//EN" "http://www.w3.org/Graphics/SVG/1.1/DTD/svg11.dtd">
<svg xmlns:dc="http://purl.org/dc/elements/1.1/" xmlns:xl="http://www.w3.org/1999/xlink" version="1.1" xmlns="http://www.w3.org/2000/svg" viewBox="33.6 110.3 300.80254 347" width="300.80254" height="347">
  <defs/>
  <metadata> Produced by OmniGraffle 7.7.1 
    <dc:date>2018-03-20 13:56:29 +0000</dc:date>
  </metadata>
  <g id="Canvas_1" fill-opacity="1" stroke-dasharray="none" stroke="none" stroke-opacity="1" fill="none">
    <title>Canvas 1</title>
    <g id="Canvas_1: Layer 1">
      <title>Layer 1</title>
      <g id="Group_361">
        <g id="Graphic_364">
          <title>03</title>
          <path d="M 227.20254 258.8 L 227.20254 308.8 L 183.90127 333.8 L 183.90127 283.8 Z" fill="#f32d41"/>
        </g>
        <g id="Graphic_363">
          <title>02</title>
          <path d="M 183.90127 333.8 L 140.6 308.8 L 140.6 258.8 L 183.90127 283.8 Z" fill="#f86d7b"/>
        </g>
        <g id="Graphic_362">
          <title>01</title>
          <path d="M 183.90127 233.8 L 140.6 258.8 L 183.90127 283.8 L 227.20254 258.8 Z" fill="#f54d5e"/>
        </g>
      </g>
      <g id="Group_49">
        <g id="Graphic_52">
          <title>03</title>
          <path d="M 173.80254 289.6 L 173.80254 339.6 L 130.50127 364.6 L 130.50127 314.6 Z" fill="#f32d41"/>
        </g>
        <g id="Graphic_51">
          <title>02</title>
          <path d="M 130.50127 364.6 L 87.2 339.6 L 87.2 289.6 L 130.50127 314.6 Z" fill="#f86d7b"/>
        </g>
        <g id="Graphic_50">
          <title>01</title>
          <path d="M 130.50127 264.6 L 87.2 289.6 L 130.50127 314.6 L 173.80254 289.6 Z" fill="#f54d5e"/>
        </g>
      </g>
      <g id="Group_474">
        <g id="Graphic_477">
          <title>03</title>
          <path d="M 120.20254 320.6 L 120.20254 370.6 L 76.90127 395.6 L 76.90127 345.6 Z" fill="#f32d41"/>
        </g>
        <g id="Graphic_476">
          <title>02</title>
          <path d="M 76.90127 395.6 L 33.6 370.6 L 33.6 320.6 L 76.90127 345.6 Z" fill="#f86d7b"/>
        </g>
        <g id="Graphic_475">
          <title>01</title>
          <path d="M 76.90127 295.6 L 33.6 320.6 L 76.90127 345.6 L 120.20254 320.6 Z" fill="#f54d5e"/>
        </g>
      </g>
      <g id="Group_486">
        <g id="Graphic_489">
          <title>03</title>
          <path d="M 280.70254 289.7 L 280.70254 339.7 L 237.40127 364.7 L 237.40127 314.7 Z" fill="#f32d41"/>
        </g>
        <g id="Graphic_488">
          <title>02</title>
          <path d="M 237.40127 364.7 L 194.1 339.7 L 194.1 289.7 L 237.40127 314.7 Z" fill="#f86d7b"/>
        </g>
        <g id="Graphic_487">
          <title>01</title>
          <path d="M 237.40127 264.7 L 194.1 289.7 L 237.40127 314.7 L 280.70254 289.7 Z" fill="#f54d5e"/>
        </g>
      </g>
      <g id="Group_482">
        <g id="Graphic_485">
          <title>03</title>
          <path d="M 227.30254 320.5 L 227.30254 370.5 L 184.00127 395.5 L 184.00127 345.5 Z" fill="#f32d41"/>
        </g>
        <g id="Graphic_484">
          <title>02</title>
          <path d="M 184.00127 395.5 L 140.7 370.5 L 140.7 320.5 L 184.00127 345.5 Z" fill="#f86d7b"/>
        </g>
        <g id="Graphic_483">
          <title>01</title>
          <path d="M 184.00127 295.5 L 140.7 320.5 L 184.00127 345.5 L 227.30254 320.5 Z" fill="#f54d5e"/>
        </g>
      </g>
      <g id="Group_478">
        <g id="Graphic_481">
          <title>03</title>
          <path d="M 173.70254 351.5 L 173.70254 401.5 L 130.40127 426.5 L 130.40127 376.5 Z" fill="#f32d41"/>
        </g>
        <g id="Graphic_480">
          <title>02</title>
          <path d="M 130.40127 426.5 L 87.1 401.5 L 87.1 351.5 L 130.40127 376.5 Z" fill="#f86d7b"/>
        </g>
        <g id="Graphic_479">
          <title>01</title>
          <path d="M 130.40127 326.5 L 87.1 351.5 L 130.40127 376.5 L 173.70254 351.5 Z" fill="#f54d5e"/>
        </g>
      </g>
      <g id="Group_498">
        <g id="Graphic_501">
          <title>03</title>
          <path d="M 334.30254 320.5 L 334.30254 370.5 L 291.00127 395.5 L 291.00127 345.5 Z" fill="#f32d41"/>
        </g>
        <g id="Graphic_500">
          <title>02</title>
          <path d="M 291.00127 395.5 L 247.7 370.5 L 247.7 320.5 L 291.00127 345.5 Z" fill="#f86d7b"/>
        </g>
        <g id="Graphic_499">
          <title>01</title>
          <path d="M 291.00127 295.5 L 247.7 320.5 L 291.00127 345.5 L 334.30254 320.5 Z" fill="#f54d5e"/>
        </g>
      </g>
      <g id="Group_494">
        <g id="Graphic_497">
          <title>03</title>
          <path d="M 280.90254 351.3 L 280.90254 401.3 L 237.60127 426.3 L 237.60127 376.3 Z" fill="#f32d41"/>
        </g>
        <g id="Graphic_496">
          <title>02</title>
          <path d="M 237.60127 426.3 L 194.3 401.3 L 194.3 351.3 L 237.60127 376.3 Z" fill="#f86d7b"/>
        </g>
        <g id="Graphic_495">
          <title>01</title>
          <path d="M 237.60127 326.3 L 194.3 351.3 L 237.60127 376.3 L 280.90254 351.3 Z" fill="#f54d5e"/>
        </g>
      </g>
      <g id="Group_490">
        <g id="Graphic_493">
          <title>03</title>
          <path d="M 227.30254 382.3 L 227.30254 432.3 L 184.00127 457.3 L 184.00127 407.3 Z" fill="#f32d41"/>
        </g>
        <g id="Graphic_492">
          <title>02</title>
          <path d="M 184.00127 457.3 L 140.7 432.3 L 140.7 382.3 L 184.00127 407.3 Z" fill="#f86d7b"/>
        </g>
        <g id="Graphic_491">
          <title>01</title>
          <path d="M 184.00127 357.3 L 140.7 382.3 L 184.00127 407.3 L 227.30254 382.3 Z" fill="#f54d5e"/>
        </g>
      </g>
      <g id="Group_534">
        <g id="Graphic_537">
          <title>03</title>
          <path d="M 227.25254 197 L 227.25254 247 L 183.95127 272 L 183.95127 222 Z" fill="#f32d41"/>
        </g>
        <g id="Graphic_536">
          <title>02</title>
          <path d="M 183.95127 272 L 140.65 247 L 140.65 197 L 183.95127 222 Z" fill="#f86d7b"/>
        </g>
        <g id="Graphic_535">
          <title>01</title>
          <path d="M 183.95127 172 L 140.65 197 L 183.95127 222 L 227.25254 197 Z" fill="#f54d5e"/>
        </g>
      </g>
      <g id="Group_530">
        <g id="Graphic_533">
          <title>03</title>
          <path d="M 173.85254 227.8 L 173.85254 277.8 L 130.55127 302.8 L 130.55127 252.8 Z" fill="#f32d41"/>
        </g>
        <g id="Graphic_532">
          <title>02</title>
          <path d="M 130.55127 302.8 L 87.25 277.8 L 87.25 227.8 L 130.55127 252.8 Z" fill="#f86d7b"/>
        </g>
        <g id="Graphic_531">
          <title>01</title>
          <path d="M 130.55127 202.8 L 87.25 227.8 L 130.55127 252.8 L 173.85254 227.8 Z" fill="#f54d5e"/>
        </g>
      </g>
      <g id="Group_526">
        <g id="Graphic_529">
          <title>03</title>
          <path d="M 120.25254 258.8 L 120.25254 308.8 L 76.95127 333.8 L 76.95127 283.8 Z" fill="#f32d41"/>
        </g>
        <g id="Graphic_528">
          <title>02</title>
          <path d="M 76.95127 333.8 L 33.65 308.8 L 33.65 258.8 L 76.95127 283.8 Z" fill="#f86d7b"/>
        </g>
        <g id="Graphic_527">
          <title>01</title>
          <path d="M 76.95127 233.8 L 33.65 258.8 L 76.95127 283.8 L 120.25254 258.8 Z" fill="#f54d5e"/>
        </g>
      </g>
      <g id="Group_522">
        <g id="Graphic_525">
          <title>03</title>
          <path d="M 280.75254 227.9 L 280.75254 277.9 L 237.45127 302.9 L 237.45127 252.9 Z" fill="#f32d41"/>
        </g>
        <g id="Graphic_524">
          <title>02</title>
          <path d="M 237.45127 302.9 L 194.15 277.9 L 194.15 227.9 L 237.45127 252.9 Z" fill="#f86d7b"/>
        </g>
        <g id="Graphic_523">
          <title>01</title>
          <path d="M 237.45127 202.9 L 194.15 227.9 L 237.45127 252.9 L 280.75254 227.9 Z" fill="#f54d5e"/>
        </g>
      </g>
      <g id="Group_518">
        <g id="Graphic_521">
          <title>03</title>
          <path d="M 227.35254 258.7 L 227.35254 308.7 L 184.05127 333.7 L 184.05127 283.7 Z" fill="#f32d41"/>
        </g>
        <g id="Graphic_520">
          <title>02</title>
          <path d="M 184.05127 333.7 L 140.75 308.7 L 140.75 258.7 L 184.05127 283.7 Z" fill="#f86d7b"/>
        </g>
        <g id="Graphic_519">
          <title>01</title>
          <path d="M 184.05127 233.7 L 140.75 258.7 L 184.05127 283.7 L 227.35254 258.7 Z" fill="#f54d5e"/>
        </g>
      </g>
      <g id="Group_514">
        <g id="Graphic_517">
          <title>03</title>
          <path d="M 173.75254 289.7 L 173.75254 339.7 L 130.45127 364.7 L 130.45127 314.7 Z" fill="#f32d41"/>
        </g>
        <g id="Graphic_516">
          <title>02</title>
          <path d="M 130.45127 364.7 L 87.15 339.7 L 87.15 289.7 L 130.45127 314.7 Z" fill="#f86d7b"/>
        </g>
        <g id="Graphic_515">
          <title>01</title>
          <path d="M 130.45127 264.7 L 87.15 289.7 L 130.45127 314.7 L 173.75254 289.7 Z" fill="#f54d5e"/>
        </g>
      </g>
      <g id="Group_510">
        <g id="Graphic_513">
          <title>03</title>
          <path d="M 334.35254 258.7 L 334.35254 308.7 L 291.05127 333.7 L 291.05127 283.7 Z" fill="#f32d41"/>
        </g>
        <g id="Graphic_512">
          <title>02</title>
          <path d="M 291.05127 333.7 L 247.75 308.7 L 247.75 258.7 L 291.05127 283.7 Z" fill="#f86d7b"/>
        </g>
        <g id="Graphic_511">
          <title>01</title>
          <path d="M 291.05127 233.7 L 247.75 258.7 L 291.05127 283.7 L 334.35254 258.7 Z" fill="#f54d5e"/>
        </g>
      </g>
      <g id="Group_506">
        <g id="Graphic_509">
          <title>03</title>
          <path d="M 280.95254 289.5 L 280.95254 339.5 L 237.65127 364.5 L 237.65127 314.5 Z" fill="#f32d41"/>
        </g>
        <g id="Graphic_508">
          <title>02</title>
          <path d="M 237.65127 364.5 L 194.35 339.5 L 194.35 289.5 L 237.65127 314.5 Z" fill="#f86d7b"/>
        </g>
        <g id="Graphic_507">
          <title>01</title>
          <path d="M 237.65127 264.5 L 194.35 289.5 L 237.65127 314.5 L 280.95254 289.5 Z" fill="#f54d5e"/>
        </g>
      </g>
      <g id="Group_502">
        <g id="Graphic_505">
          <title>03</title>
          <path d="M 227.35254 320.5 L 227.35254 370.5 L 184.05127 395.5 L 184.05127 345.5 Z" fill="#f32d41"/>
        </g>
        <g id="Graphic_504">
          <title>02</title>
          <path d="M 184.05127 395.5 L 140.75 370.5 L 140.75 320.5 L 184.05127 345.5 Z" fill="#f86d7b"/>
        </g>
        <g id="Graphic_503">
          <title>01</title>
          <path d="M 184.05127 295.5 L 140.75 320.5 L 184.05127 345.5 L 227.35254 320.5 Z" fill="#f54d5e"/>
        </g>
      </g>
      <g id="Group_570">
        <g id="Graphic_573">
          <title>03</title>
          <path d="M 227.30254 135.3 L 227.30254 185.3 L 184.00127 210.3 L 184.00127 160.3 Z" fill="#f32d41"/>
        </g>
        <g id="Graphic_572">
          <title>02</title>
          <path d="M 184.00127 210.3 L 140.7 185.3 L 140.7 135.3 L 184.00127 160.3 Z" fill="#f86d7b"/>
        </g>
        <g id="Graphic_571">
          <title>01</title>
          <path d="M 184.00127 110.3 L 140.7 135.3 L 184.00127 160.3 L 227.30254 135.3 Z" fill="#f54d5e"/>
        </g>
      </g>
      <g id="Group_566">
        <g id="Graphic_569">
          <title>03</title>
          <path d="M 173.90254 166.1 L 173.90254 216.1 L 130.60127 241.1 L 130.60127 191.1 Z" fill="#f32d41"/>
        </g>
        <g id="Graphic_568">
          <title>02</title>
          <path d="M 130.60127 241.1 L 87.3 216.1 L 87.3 166.1 L 130.60127 191.1 Z" fill="#f86d7b"/>
        </g>
        <g id="Graphic_567">
          <title>01</title>
          <path d="M 130.60127 141.1 L 87.3 166.1 L 130.60127 191.1 L 173.90254 166.1 Z" fill="#f54d5e"/>
        </g>
      </g>
      <g id="Group_562">
        <g id="Graphic_565">
          <title>03</title>
          <path d="M 120.30254 197.1 L 120.30254 247.1 L 77.00127 272.1 L 77.00127 222.1 Z" fill="#f32d41"/>
        </g>
        <g id="Graphic_564">
          <title>02</title>
          <path d="M 77.00127 272.1 L 33.7 247.1 L 33.7 197.1 L 77.00127 222.1 Z" fill="#f86d7b"/>
        </g>
        <g id="Graphic_563">
          <title>01</title>
          <path d="M 77.00127 172.1 L 33.7 197.1 L 77.00127 222.1 L 120.30254 197.1 Z" fill="#f54d5e"/>
        </g>
      </g>
      <g id="Group_558">
        <g id="Graphic_561">
          <title>03</title>
          <path d="M 280.80254 166.2 L 280.80254 216.2 L 237.50127 241.2 L 237.50127 191.2 Z" fill="#f32d41"/>
        </g>
        <g id="Graphic_560">
          <title>02</title>
          <path d="M 237.50127 241.2 L 194.2 216.2 L 194.2 166.2 L 237.50127 191.2 Z" fill="#f86d7b"/>
        </g>
        <g id="Graphic_559">
          <title>01</title>
          <path d="M 237.50127 141.2 L 194.2 166.2 L 237.50127 191.2 L 280.80254 166.2 Z" fill="#f54d5e"/>
        </g>
      </g>
      <g id="Group_554">
        <g id="Graphic_557">
          <title>03</title>
          <path d="M 227.40254 197 L 227.40254 247 L 184.10127 272 L 184.10127 222 Z" fill="#f32d41"/>
        </g>
        <g id="Graphic_556">
          <title>02</title>
          <path d="M 184.10127 272 L 140.8 247 L 140.8 197 L 184.10127 222 Z" fill="#f86d7b"/>
        </g>
        <g id="Graphic_555">
          <title>01</title>
          <path d="M 184.10127 172 L 140.8 197 L 184.10127 222 L 227.40254 197 Z" fill="#f54d5e"/>
        </g>
      </g>
      <g id="Group_550">
        <g id="Graphic_553">
          <title>03</title>
          <path d="M 173.80254 228 L 173.80254 278 L 130.50127 303 L 130.50127 253 Z" fill="#f32d41"/>
        </g>
        <g id="Graphic_552">
          <title>02</title>
          <path d="M 130.50127 303 L 87.2 278 L 87.2 228 L 130.50127 253 Z" fill="#f86d7b"/>
        </g>
        <g id="Graphic_551">
          <title>01</title>
          <path d="M 130.50127 203 L 87.2 228 L 130.50127 253 L 173.80254 228 Z" fill="#f54d5e"/>
        </g>
      </g>
      <g id="Group_546">
        <g id="Graphic_549">
          <title>03</title>
          <path d="M 334.40254 197 L 334.40254 247 L 291.10127 272 L 291.10127 222 Z" fill="#f32d41"/>
        </g>
        <g id="Graphic_548">
          <title>02</title>
          <path d="M 291.10127 272 L 247.8 247 L 247.8 197 L 291.10127 222 Z" fill="#f86d7b"/>
        </g>
        <g id="Graphic_547">
          <title>01</title>
          <path d="M 291.10127 172 L 247.8 197 L 291.10127 222 L 334.40254 197 Z" fill="#f54d5e"/>
        </g>
      </g>
      <g id="Group_542">
        <g id="Graphic_545">
          <title>03</title>
          <path d="M 281.00254 227.8 L 281.00254 277.8 L 237.70127 302.8 L 237.70127 252.8 Z" fill="#f32d41"/>
        </g>
        <g id="Graphic_544">
          <title>02</title>
          <path d="M 237.70127 302.8 L 194.4 277.8 L 194.4 227.8 L 237.70127 252.8 Z" fill="#f86d7b"/>
        </g>
        <g id="Graphic_543">
          <title>01</title>
          <path d="M 237.70127 202.8 L 194.4 227.8 L 237.70127 252.8 L 281.00254 227.8 Z" fill="#f54d5e"/>
        </g>
      </g>
      <g id="Group_538">
        <g id="Graphic_541">
          <title>03</title>
          <path d="M 227.40254 258.8 L 227.40254 308.8 L 184.10127 333.8 L 184.10127 283.8 Z" fill="#f32d41"/>
        </g>
        <g id="Graphic_540">
          <title>02</title>
          <path d="M 184.10127 333.8 L 140.8 308.8 L 140.8 258.8 L 184.10127 283.8 Z" fill="#f86d7b"/>
        </g>
        <g id="Graphic_539">
          <title>01</title>
          <path d="M 184.10127 233.8 L 140.8 258.8 L 184.10127 283.8 L 227.40254 258.8 Z" fill="#f54d5e"/>
        </g>
      </g>
    </g>
  </g>
</svg>
