<?xml version="1.0" encoding="UTF-8" standalone="no"?>
<!DOCTYPE svg PUBLIC "-//W3C//DTD SVG 1.1//EN" "http://www.w3.org/Graphics/SVG/1.1/DTD/svg11.dtd">
<svg xmlns:dc="http://purl.org/dc/elements/1.1/" xmlns:xl="http://www.w3.org/1999/xlink" version="1.1" xmlns="http://www.w3.org/2000/svg" viewBox="-1 -1 392 340" width="392" height="340">
  <defs/>
  <metadata> Produced by OmniGraffle 7.7.1 
    <dc:date>2018-07-11 19:12:50 +0000</dc:date>
  </metadata>
  <g id="Canvas_1" fill-opacity="1" stroke-dasharray="none" stroke="none" stroke-opacity="1" fill="none">
    <title>Canvas 1</title>
    <g id="Canvas_1: Layer 1">
      <title>Layer 1</title>
      <g id="Graphic_143">
        <path d="M 240 207.8461 L 210 155.8846 L 180 207.8461 Z" fill="#ffd54f"/>
        <path d="M 240 207.8461 L 210 155.8846 L 180 207.8461 Z" stroke="#ffd54f" stroke-linecap="round" stroke-linejoin="round" stroke-width="1"/>
      </g>
      <g id="Graphic_145">
        <path d="M 270 259.80754 L 240 207.84604 L 210 259.80754 Z" fill="#ffb300"/>
        <path d="M 270 259.80754 L 240 207.84604 L 210 259.80754 Z" stroke="#ffb300" stroke-linecap="round" stroke-linejoin="round" stroke-width="1"/>
      </g>
      <g id="Graphic_144">
        <path d="M 180 207.84604 L 210 259.80754 L 240 207.84604 Z" fill="#ffb300"/>
        <path d="M 180 207.84604 L 210 259.80754 L 240 207.84604 Z" stroke="#ffb300" stroke-linecap="round" stroke-linejoin="round" stroke-width="1"/>
      </g>
      <g id="Group_115">
        <g id="Graphic_121">
          <path d="M 195 285.7883 L 225 337.7498 L 255 285.7883 Z" fill="#ffca28"/>
          <path d="M 195 285.7883 L 225 337.7498 L 255 285.7883 Z" stroke="#ffca28" stroke-linecap="round" stroke-linejoin="round" stroke-width="1"/>
        </g>
        <g id="Graphic_120">
          <path d="M 255 285.7883 L 225 233.8268 L 195 285.7883 Z" fill="#ffca28"/>
          <path d="M 255 285.7883 L 225 233.8268 L 195 285.7883 Z" stroke="#ffca28" stroke-linecap="round" stroke-linejoin="round" stroke-width="1"/>
        </g>
        <g id="Graphic_119">
          <path d="M 225 337.7498 L 195 285.7883 L 165 337.7498 Z" fill="#ffb300"/>
          <path d="M 225 337.7498 L 195 285.7883 L 165 337.7498 Z" stroke="#ffb300" stroke-linecap="round" stroke-linejoin="round" stroke-width="1"/>
        </g>
        <g id="Graphic_118">
          <path d="M 135 285.7883 L 165 337.7498 L 195 285.7883 Z" fill="#ffb300"/>
          <path d="M 135 285.7883 L 165 337.7498 L 195 285.7883 Z" stroke="#ffb300" stroke-linecap="round" stroke-linejoin="round" stroke-width="1"/>
        </g>
        <g id="Graphic_117">
          <path d="M 195 285.7883 L 165 233.8268 L 135 285.7883 Z" fill="#ffd54f"/>
          <path d="M 195 285.7883 L 165 233.8268 L 135 285.7883 Z" stroke="#ffd54f" stroke-linecap="round" stroke-linejoin="round" stroke-width="1"/>
        </g>
        <g id="Graphic_116">
          <path d="M 165 233.8268 L 195 285.7883 L 225 233.8268 Z" fill="#ffd54f"/>
          <path d="M 165 233.8268 L 195 285.7883 L 225 233.8268 Z" stroke="#ffd54f" stroke-linecap="round" stroke-linejoin="round" stroke-width="1"/>
        </g>
      </g>
      <g id="Graphic_102">
        <path d="M 105 129.9038 L 75 77.9423 L 45 129.9038 Z" fill="#ffd54f"/>
        <path d="M 105 129.9038 L 75 77.9423 L 45 129.9038 Z" stroke="#ffd54f" stroke-linecap="round" stroke-linejoin="round" stroke-width="1"/>
      </g>
      <g id="Graphic_101">
        <path d="M 75 77.9423 L 105 129.9038 L 135 77.9423 Z" fill="#ffd54f"/>
        <path d="M 75 77.9423 L 105 129.9038 L 135 77.9423 Z" stroke="#ffd54f" stroke-linecap="round" stroke-linejoin="round" stroke-width="1"/>
      </g>
      <g id="Graphic_103">
        <path d="M 165 129.9038 L 135 77.9423 L 105 129.9038 Z" fill="#ffca28"/>
        <path d="M 165 129.9038 L 135 77.9423 L 105 129.9038 Z" stroke="#ffca28" stroke-linecap="round" stroke-linejoin="round" stroke-width="1"/>
      </g>
      <g id="Group_91">
        <g id="Graphic_90">
          <path d="M 60 51.9615 L 90 103.923 L 120 51.9615 Z" fill="#ffca28"/>
          <path d="M 60 51.9615 L 90 103.923 L 120 51.9615 Z" stroke="#ffca28" stroke-linecap="round" stroke-linejoin="round" stroke-width="1"/>
        </g>
        <g id="Graphic_89">
          <path d="M 120 51.9615 L 90 0 L 60 51.9615 Z" fill="#ffca28"/>
          <path d="M 120 51.9615 L 90 0 L 60 51.9615 Z" stroke="#ffca28" stroke-linecap="round" stroke-linejoin="round" stroke-width="1"/>
        </g>
        <g id="Graphic_88">
          <path d="M 90 103.923 L 60 51.9615 L 30 103.923 Z" fill="#ffb300"/>
          <path d="M 90 103.923 L 60 51.9615 L 30 103.923 Z" stroke="#ffb300" stroke-linecap="round" stroke-linejoin="round" stroke-width="1"/>
        </g>
        <g id="Graphic_87">
          <path d="M 0 51.9615 L 30 103.923 L 60 51.9615 Z" fill="#ffb300"/>
          <path d="M 0 51.9615 L 30 103.923 L 60 51.9615 Z" stroke="#ffb300" stroke-linecap="round" stroke-linejoin="round" stroke-width="1"/>
        </g>
        <g id="Graphic_86">
          <path d="M 60 51.9615 L 30 0 L 35527137e-22 51.9615 Z" fill="#ffd54f"/>
          <path d="M 60 51.9615 L 30 0 L 35527137e-22 51.9615 Z" stroke="#ffd54f" stroke-linecap="round" stroke-linejoin="round" stroke-width="1"/>
        </g>
        <g id="Graphic_85">
          <path d="M 30 0 L 60 51.9615 L 90 0 Z" fill="#ffd54f"/>
          <path d="M 30 0 L 60 51.9615 L 90 0 Z" stroke="#ffd54f" stroke-linecap="round" stroke-linejoin="round" stroke-width="1"/>
        </g>
      </g>
      <g id="Graphic_58">
        <path d="M 240 51.9615 L 270 103.923 L 300 51.9615 Z" fill="#ffca28"/>
        <path d="M 240 51.9615 L 270 103.923 L 300 51.9615 Z" stroke="#ffca28" stroke-linecap="round" stroke-linejoin="round" stroke-width="1"/>
      </g>
      <g id="Graphic_57">
        <path d="M 300 51.9615 L 270 0 L 240 51.9615 Z" fill="#ffca28"/>
        <path d="M 300 51.9615 L 270 0 L 240 51.9615 Z" stroke="#ffca28" stroke-linecap="round" stroke-linejoin="round" stroke-width="1"/>
      </g>
      <g id="Graphic_56">
        <path d="M 180 103.923 L 150 51.9615 L 120 103.923 Z" fill="#ffb300"/>
        <path d="M 180 103.923 L 150 51.9615 L 120 103.923 Z" stroke="#ffb300" stroke-linecap="round" stroke-linejoin="round" stroke-width="1"/>
      </g>
      <g id="Graphic_55">
        <path d="M 90 51.9615 L 120 103.923 L 150 51.9615 Z" fill="#ffb300"/>
        <path d="M 90 51.9615 L 120 103.923 L 150 51.9615 Z" stroke="#ffb300" stroke-linecap="round" stroke-linejoin="round" stroke-width="1"/>
      </g>
      <g id="Graphic_54">
        <path d="M 150 51.9615 L 120 0 L 90 51.9615 Z" fill="#ffd54f"/>
        <path d="M 150 51.9615 L 120 0 L 90 51.9615 Z" stroke="#ffd54f" stroke-linecap="round" stroke-linejoin="round" stroke-width="1"/>
      </g>
      <g id="Graphic_53">
        <path d="M 120 0 L 150 51.9615 L 180 0 Z" fill="#ffd54f"/>
        <path d="M 120 0 L 150 51.9615 L 180 0 Z" stroke="#ffd54f" stroke-linecap="round" stroke-linejoin="round" stroke-width="1"/>
      </g>
      <g id="Graphic_62">
        <path d="M 240 103.923 L 210 51.9615 L 180 103.923 Z" fill="#ffb300"/>
        <path d="M 240 103.923 L 210 51.9615 L 180 103.923 Z" stroke="#ffb300" stroke-linecap="round" stroke-linejoin="round" stroke-width="1"/>
      </g>
      <g id="Graphic_61">
        <path d="M 150 51.9615 L 180 103.923 L 210 51.9615 Z" fill="#ffb300"/>
        <path d="M 150 51.9615 L 180 103.923 L 210 51.9615 Z" stroke="#ffb300" stroke-linecap="round" stroke-linejoin="round" stroke-width="1"/>
      </g>
      <g id="Graphic_59">
        <path d="M 180 0 L 210 51.9615 L 240 0 Z" fill="#ffd54f"/>
        <path d="M 180 0 L 210 51.9615 L 240 0 Z" stroke="#ffd54f" stroke-linecap="round" stroke-linejoin="round" stroke-width="1"/>
      </g>
      <g id="Graphic_78">
        <path d="M 270 103.923 L 240 51.9615 L 210 103.923 Z" fill="#ffb300"/>
        <path d="M 270 103.923 L 240 51.9615 L 210 103.923 Z" stroke="#ffb300" stroke-linecap="round" stroke-linejoin="round" stroke-width="1"/>
      </g>
      <g id="Graphic_77">
        <path d="M 180 51.9615 L 210 103.923 L 240 51.9615 Z" fill="#ffb300"/>
        <path d="M 180 51.9615 L 210 103.923 L 240 51.9615 Z" stroke="#ffb300" stroke-linecap="round" stroke-linejoin="round" stroke-width="1"/>
      </g>
      <g id="Group_98">
        <g id="Graphic_97">
          <path d="M 330 51.9615 L 360 103.923 L 390 51.9615 Z" fill="#ffca28"/>
          <path d="M 330 51.9615 L 360 103.923 L 390 51.9615 Z" stroke="#ffca28" stroke-linecap="round" stroke-linejoin="round" stroke-width="1"/>
        </g>
        <g id="Graphic_96">
          <path d="M 390 51.9615 L 360 0 L 330 51.9615 Z" fill="#ffca28"/>
          <path d="M 390 51.9615 L 360 0 L 330 51.9615 Z" stroke="#ffca28" stroke-linecap="round" stroke-linejoin="round" stroke-width="1"/>
        </g>
        <g id="Graphic_95">
          <path d="M 360 103.923 L 330 51.9615 L 300 103.923 Z" fill="#ffb300"/>
          <path d="M 360 103.923 L 330 51.9615 L 300 103.923 Z" stroke="#ffb300" stroke-linecap="round" stroke-linejoin="round" stroke-width="1"/>
        </g>
        <g id="Graphic_94">
          <path d="M 270 51.9615 L 300 103.923 L 330 51.9615 Z" fill="#ffb300"/>
          <path d="M 270 51.9615 L 300 103.923 L 330 51.9615 Z" stroke="#ffb300" stroke-linecap="round" stroke-linejoin="round" stroke-width="1"/>
        </g>
        <g id="Graphic_93">
          <path d="M 330 51.9615 L 300 0 L 270 51.9615 Z" fill="#ffd54f"/>
          <path d="M 330 51.9615 L 300 0 L 270 51.9615 Z" stroke="#ffd54f" stroke-linecap="round" stroke-linejoin="round" stroke-width="1"/>
        </g>
        <g id="Graphic_92">
          <path d="M 300 0 L 330 51.9615 L 360 0 Z" fill="#ffd54f"/>
          <path d="M 300 0 L 330 51.9615 L 360 0 Z" stroke="#ffd54f" stroke-linecap="round" stroke-linejoin="round" stroke-width="1"/>
        </g>
      </g>
      <g id="Graphic_60">
        <path d="M 210 51.9615 L 180 0 L 150 51.9615 Z" fill="#ffd54f"/>
        <path d="M 210 51.9615 L 180 0 L 150 51.9615 Z" stroke="#ffd54f" stroke-linecap="round" stroke-linejoin="round" stroke-width="1"/>
      </g>
      <g id="Graphic_75">
        <path d="M 210 0 L 240 51.9615 L 270 0 Z" fill="#ffd54f"/>
        <path d="M 210 0 L 240 51.9615 L 270 0 Z" stroke="#ffd54f" stroke-linecap="round" stroke-linejoin="round" stroke-width="1"/>
      </g>
      <g id="Graphic_76">
        <path d="M 240 51.9615 L 210 0 L 180 51.9615 Z" fill="#ffd54f"/>
        <path d="M 240 51.9615 L 210 0 L 180 51.9615 Z" stroke="#ffd54f" stroke-linecap="round" stroke-linejoin="round" stroke-width="1"/>
      </g>
      <g id="Graphic_104">
        <path d="M 105 129.9038 L 135 181.8653 L 165 129.9038 Z" fill="#ffca28"/>
        <path d="M 105 129.9038 L 135 181.8653 L 165 129.9038 Z" stroke="#ffca28" stroke-linecap="round" stroke-linejoin="round" stroke-width="1"/>
      </g>
      <g id="Graphic_106">
        <path d="M 135 181.8653 L 165 233.8268 L 195 181.8653 Z" fill="#ffca28"/>
        <path d="M 135 181.8653 L 165 233.8268 L 195 181.8653 Z" stroke="#ffca28" stroke-linecap="round" stroke-linejoin="round" stroke-width="1"/>
      </g>
      <g id="Graphic_105">
        <path d="M 195 181.8653 L 165 129.9038 L 135 181.8653 Z" fill="#ffca28"/>
        <path d="M 195 181.8653 L 165 129.9038 L 135 181.8653 Z" stroke="#ffca28" stroke-linecap="round" stroke-linejoin="round" stroke-width="1"/>
      </g>
      <g id="Graphic_108">
        <path d="M 150 207.8461 L 180 259.8076 L 210 207.8461 Z" fill="#ffca28"/>
        <path d="M 150 207.8461 L 180 259.8076 L 210 207.8461 Z" stroke="#ffca28" stroke-linecap="round" stroke-linejoin="round" stroke-width="1"/>
      </g>
      <g id="Graphic_107">
        <path d="M 210 207.8461 L 180 155.8846 L 150 207.8461 Z" fill="#ffca28"/>
        <path d="M 210 207.8461 L 180 155.8846 L 150 207.8461 Z" stroke="#ffca28" stroke-linecap="round" stroke-linejoin="round" stroke-width="1"/>
      </g>
      <g id="Graphic_110">
        <path d="M 135 181.8653 L 105 129.9038 L 75 181.8653 Z" fill="#ffb300"/>
        <path d="M 135 181.8653 L 105 129.9038 L 75 181.8653 Z" stroke="#ffb300" stroke-linecap="round" stroke-linejoin="round" stroke-width="1"/>
      </g>
      <g id="Graphic_109">
        <path d="M 45 129.9038 L 75 181.8653 L 105 129.9038 Z" fill="#ffb300"/>
        <path d="M 45 129.9038 L 75 181.8653 L 105 129.9038 Z" stroke="#ffb300" stroke-linecap="round" stroke-linejoin="round" stroke-width="1"/>
      </g>
      <g id="Graphic_112">
        <path d="M 165 233.8268 L 135 181.8653 L 105 233.8268 Z" fill="#ffb300"/>
        <path d="M 165 233.8268 L 135 181.8653 L 105 233.8268 Z" stroke="#ffb300" stroke-linecap="round" stroke-linejoin="round" stroke-width="1"/>
      </g>
      <g id="Graphic_111">
        <path d="M 75 181.8653 L 105 233.8268 L 135 181.8653 Z" fill="#ffb300"/>
        <path d="M 75 181.8653 L 105 233.8268 L 135 181.8653 Z" stroke="#ffb300" stroke-linecap="round" stroke-linejoin="round" stroke-width="1"/>
      </g>
      <g id="Graphic_114">
        <path d="M 180 259.8076 L 150 207.8461 L 120 259.8076 Z" fill="#ffb300"/>
        <path d="M 180 259.8076 L 150 207.8461 L 120 259.8076 Z" stroke="#ffb300" stroke-linecap="round" stroke-linejoin="round" stroke-width="1"/>
      </g>
      <g id="Graphic_113">
        <path d="M 90 207.8461 L 120 259.8076 L 150 207.8461 Z" fill="#ffb300"/>
        <path d="M 90 207.8461 L 120 259.8076 L 150 207.8461 Z" stroke="#ffb300" stroke-linecap="round" stroke-linejoin="round" stroke-width="1"/>
      </g>
      <g id="Graphic_125">
        <path d="M 285 129.9038 L 255 77.9423 L 225 129.9038 Z" fill="#ffd54f"/>
        <path d="M 285 129.9038 L 255 77.9423 L 225 129.9038 Z" stroke="#ffd54f" stroke-linecap="round" stroke-linejoin="round" stroke-width="1"/>
      </g>
      <g id="Graphic_124">
        <path d="M 255 77.9423 L 285 129.9038 L 315 77.9423 Z" fill="#ffd54f"/>
        <path d="M 255 77.9423 L 285 129.9038 L 315 77.9423 Z" stroke="#ffd54f" stroke-linecap="round" stroke-linejoin="round" stroke-width="1"/>
      </g>
      <g id="Graphic_127">
        <path d="M 255 181.8653 L 225 129.9038 L 195 181.8653 Z" fill="#ffd54f"/>
        <path d="M 255 181.8653 L 225 129.9038 L 195 181.8653 Z" stroke="#ffd54f" stroke-linecap="round" stroke-linejoin="round" stroke-width="1"/>
      </g>
      <g id="Graphic_126">
        <path d="M 225 129.9038 L 255 181.8653 L 285 129.9038 Z" fill="#ffd54f"/>
        <path d="M 225 129.9038 L 255 181.8653 L 285 129.9038 Z" stroke="#ffd54f" stroke-linecap="round" stroke-linejoin="round" stroke-width="1"/>
      </g>
      <g id="Graphic_131">
        <path d="M 285 129.9038 L 315 181.8653 L 345 129.9038 Z" fill="#ffca28"/>
        <path d="M 285 129.9038 L 315 181.8653 L 345 129.9038 Z" stroke="#ffca28" stroke-linecap="round" stroke-linejoin="round" stroke-width="1"/>
      </g>
      <g id="Graphic_130">
        <path d="M 345 129.9038 L 315 77.9423 L 285 129.9038 Z" fill="#ffca28"/>
        <path d="M 345 129.9038 L 315 77.9423 L 285 129.9038 Z" stroke="#ffca28" stroke-linecap="round" stroke-linejoin="round" stroke-width="1"/>
      </g>
      <g id="Graphic_133">
        <path d="M 255 181.86535 L 285 233.82685 L 315 181.86535 Z" fill="#ffca28"/>
        <path d="M 255 181.86535 L 285 233.82685 L 315 181.86535 Z" stroke="#ffca28" stroke-linecap="round" stroke-linejoin="round" stroke-width="1"/>
      </g>
      <g id="Graphic_132">
        <path d="M 315 181.86535 L 285 129.90385 L 255 181.86535 Z" fill="#ffca28"/>
        <path d="M 315 181.86535 L 285 129.90385 L 255 181.86535 Z" stroke="#ffca28" stroke-linecap="round" stroke-linejoin="round" stroke-width="1"/>
      </g>
      <g id="Graphic_141">
        <path d="M 240 207.84604 L 270 259.80754 L 300 207.84604 Z" fill="#ffca28"/>
        <path d="M 240 207.84604 L 270 259.80754 L 300 207.84604 Z" stroke="#ffca28" stroke-linecap="round" stroke-linejoin="round" stroke-width="1"/>
      </g>
      <g id="Graphic_140">
        <path d="M 300 207.84604 L 270 155.88455 L 240 207.84604 Z" fill="#ffca28"/>
        <path d="M 300 207.84604 L 270 155.88455 L 240 207.84604 Z" stroke="#ffca28" stroke-linecap="round" stroke-linejoin="round" stroke-width="1"/>
      </g>
      <g id="Graphic_142">
        <path d="M 210 155.8846 L 240 207.8461 L 270 155.8846 Z" fill="#ffd54f"/>
        <path d="M 210 155.8846 L 240 207.8461 L 270 155.8846 Z" stroke="#ffd54f" stroke-linecap="round" stroke-linejoin="round" stroke-width="1"/>
      </g>
    </g>
  </g>
</svg>
