<?xml version="1.0" encoding="UTF-8" standalone="no"?>
<!DOCTYPE svg PUBLIC "-//W3C//DTD SVG 1.1//EN" "http://www.w3.org/Graphics/SVG/1.1/DTD/svg11.dtd">
<svg xmlns:dc="http://purl.org/dc/elements/1.1/" xmlns:xl="http://www.w3.org/1999/xlink" version="1.1" xmlns="http://www.w3.org/2000/svg" viewBox="-8 178 374 324" width="374" height="324">
  <defs/>
  <metadata> Produced by OmniGraffle 7.7.1 
    <dc:date>2018-06-16 21:42:43 +0000</dc:date>
  </metadata>
  <g id="Canvas_1" fill-opacity="1" stroke-dasharray="none" stroke="none" stroke-opacity="1" fill="none">
    <title>Canvas 1</title>
    <g id="Canvas_1: Layer 1">
      <title>Layer 1</title>
      <g id="Graphic_101">
        <title>02</title>
        <path d="M 78.26497 377 L 107.13249 327 L 164.86751 327 L 136 377 Z" fill="#29b6f6"/>
      </g>
      <g id="Group_103">
        <g id="Graphic_106">
          <title>03</title>
          <path d="M 121.86751 353.5 L 64.13249 353.5 L 35.264973 303.5 L 93 303.5 Z" fill="#0288d1"/>
        </g>
        <g id="Graphic_105">
          <title>02</title>
          <path d="M 35.264973 303.5 L 64.13249 253.5 L 121.86751 253.5 L 93 303.5 Z" fill="#29b6f6"/>
        </g>
        <g id="Graphic_104">
          <title>01</title>
          <path d="M 150.73503 303.5 L 121.86751 253.5 L 93 303.5 L 121.86751 353.5 Z" fill="#03a9f4"/>
        </g>
      </g>
      <g id="Group_3">
        <g id="Graphic_6">
          <title>03</title>
          <path d="M 78.86751 278.69873 L 21.132486 278.69873 L -7.735027 228.69873 L 50 228.69873 Z" fill="#0288d1"/>
        </g>
        <g id="Graphic_5">
          <title>02</title>
          <path d="M -7.735027 228.69873 L 21.132486 178.69873 L 78.86751 178.69873 L 50 228.69873 Z" fill="#29b6f6"/>
        </g>
        <g id="Graphic_4">
          <title>01</title>
          <path d="M 107.73503 228.69873 L 78.86751 178.69873 L 50 228.69873 L 78.86751 278.69873 Z" fill="#03a9f4"/>
        </g>
      </g>
      <g id="Group_75">
        <g id="Graphic_78">
          <title>03</title>
          <path d="M 164.86751 278.69873 L 107.13249 278.69873 L 78.26497 228.69873 L 136 228.69873 Z" fill="#0288d1"/>
        </g>
        <g id="Graphic_77">
          <title>02</title>
          <path d="M 78.26497 228.69873 L 107.13249 178.69873 L 164.86751 178.69873 L 136 228.69873 Z" fill="#29b6f6"/>
        </g>
        <g id="Graphic_76">
          <title>01</title>
          <path d="M 193.73503 228.69873 L 164.86751 178.69873 L 136 228.69873 L 164.86751 278.69873 Z" fill="#03a9f4"/>
        </g>
      </g>
      <g id="Group_79">
        <g id="Graphic_82">
          <title>03</title>
          <path d="M 250.8675 278.69873 L 193.13249 278.69873 L 164.26497 228.69873 L 222 228.69873 Z" fill="#0288d1"/>
        </g>
        <g id="Graphic_81">
          <title>02</title>
          <path d="M 164.26497 228.69873 L 193.13249 178.69873 L 250.8675 178.69873 L 222 228.69873 Z" fill="#29b6f6"/>
        </g>
        <g id="Graphic_80">
          <title>01</title>
          <path d="M 279.73503 228.69873 L 250.8675 178.69873 L 222 228.69873 L 250.8675 278.69873 Z" fill="#03a9f4"/>
        </g>
      </g>
      <g id="Group_83">
        <g id="Graphic_86">
          <title>03</title>
          <path d="M 336.8675 278.69873 L 279.1325 278.69873 L 250.26497 228.69873 L 308 228.69873 Z" fill="#0288d1"/>
        </g>
        <g id="Graphic_85">
          <title>02</title>
          <path d="M 250.26497 228.69873 L 279.1325 178.69873 L 336.8675 178.69873 L 308 228.69873 Z" fill="#29b6f6"/>
        </g>
        <g id="Graphic_84">
          <title>01</title>
          <path d="M 365.73503 228.69873 L 336.8675 178.69873 L 308 228.69873 L 336.8675 278.69873 Z" fill="#03a9f4"/>
        </g>
      </g>
      <g id="Group_87">
        <g id="Graphic_90">
          <title>03</title>
          <path d="M 293.8675 353.5 L 236.1325 353.5 L 207.26497 303.5 L 265 303.5 Z" fill="#0288d1"/>
        </g>
        <g id="Graphic_89">
          <title>02</title>
          <path d="M 207.26497 303.5 L 236.1325 253.5 L 293.8675 253.5 L 265 303.5 Z" fill="#29b6f6"/>
        </g>
        <g id="Graphic_88">
          <title>01</title>
          <path d="M 322.73503 303.5 L 293.8675 253.5 L 265 303.5 L 293.8675 353.5 Z" fill="#03a9f4"/>
        </g>
      </g>
      <g id="Graphic_94">
        <title>03</title>
        <path d="M 250.8675 427 L 193.13249 427 L 164.26497 377 L 222 377 Z" fill="#0288d1"/>
      </g>
      <g id="Graphic_93">
        <title>02</title>
        <path d="M 164.26497 377 L 193.13249 327 L 250.8675 327 L 222 377 Z" fill="#29b6f6"/>
      </g>
      <g id="Graphic_92">
        <title>01</title>
        <path d="M 279.73503 377 L 250.8675 327 L 222 377 L 250.8675 427 Z" fill="#03a9f4"/>
      </g>
      <g id="Group_95">
        <g id="Graphic_98">
          <title>03</title>
          <path d="M 207.05615 501.4536 L 149.32112 501.4536 L 120.45361 451.4536 L 178.18864 451.4536 Z" fill="#0288d1"/>
        </g>
        <g id="Graphic_97">
          <title>02</title>
          <path d="M 120.45361 451.4536 L 149.32112 401.4536 L 207.05615 401.4536 L 178.18864 451.4536 Z" fill="#29b6f6"/>
        </g>
        <g id="Graphic_96">
          <title>01</title>
          <path d="M 235.92366 451.4536 L 207.05615 401.4536 L 178.18864 451.4536 L 207.05615 501.4536 Z" fill="#03a9f4"/>
        </g>
      </g>
      <g id="Graphic_100">
        <title>01</title>
        <path d="M 193.73503 377 L 164.86751 327 L 136 377 L 164.86751 427 Z" fill="#03a9f4"/>
      </g>
      <g id="Graphic_102">
        <title>03</title>
        <path d="M 164.86751 427 L 107.13249 427 L 78.26497 377 L 136 377 Z" fill="#0288d1"/>
      </g>
    </g>
  </g>
</svg>
